# xmcd
#
# Track frame offsets:
#	150
#	15131
#	29762
#	43921
#	58731
#	73500
#	88237
#	102145
#	116694
#	131369
#
# Disc length: 1940 seconds
#
# Revision: 0
# Processed by: cddbd v1.5.2PL0 Copyright (c) Steve Scherf et al.
# Submitted via: EasyCDDAExtractor 16.0.6.1
#
DISCID=8407920a
DTITLE=Συλλογικός δίσκος - Ιστορία ρεμπέτικου και λαϊκού 02-2
DYEAR=2007
DGENRE=Ποικίλη
TTITLE0=Εσκενάζυ Ρόζα - Δημητρούλα μου [Παν. Τούντας]
TTITLE1=Ρούκουνας Κώστας ή Σαμιωτάκης - Ο πιτσιρίκος [Ι. Δραγάτσης-Μαρ. Φραντσ
TTITLE1=ζεσκοπούλου]
TTITLE2=Ρούκουνας Κώστας ή Σαμιωτάκης - Γιατί να κάθεσαι να λες [Σπ. Περιστέρη
TTITLE2=ς-ίδ. κ Γ. Καμβύσης]
TTITLE3=Βαμβακάρης Μάρκος - Να μ' αξιώσει ο Θεός [Μ. Βαμβακάρης]
TTITLE4=Γκόγκος Δημήτρης ή Μπαγιαντέρας - Πάντα με γλυκό χασίσι [Δημ. Γκόγκος 
TTITLE4=Μπαγιαντέρας]
TTITLE5=Βαμβακάρης Μάρκος - Κάφ' τονε Σταύρο, κάφ' τονε [Μ. Βαμβακάρης]
TTITLE6=Παπάζογλου Βαγγέλης-Περπινιάδης Στελλάκης - Η φωνή του αργιλέ [Βαγγ. Π
TTITLE6=απάζογλου]
TTITLE7=Μπάτης Γιώργος - Θέλω να γίνω μπουφετζής [Γιώργος Μπάτης]
TTITLE8=Εσκενάζυ Ρόζα - Είμαι πρεζάκιας [Ν. Δέλτα/Αιμ.Σαββίδης-ΣώσοςΙωαννίδηςΨ
TTITLE8=υριώτης]
TTITLE9=Βαμβακάρης Μάρκος - Χθες το βράδυ στο σκοτάδι [Μ. Βαμβακάρης]
EXTD=
EXTT0=
EXTT1=
EXTT2=
EXTT3=
EXTT4=
EXTT5=
EXTT6=
EXTT7=
EXTT8=
EXTT9=
PLAYORDER=
